<svg xmlns="http://www.w3.org/2000/svg" viewBox="0 0 528.53 285.59"><path fill="#000" d="M108.56 205.07l-50.77 50.75c3.81 3.75 7.45 8.24 12 11.52 6.45 4.69 5.73 11.11 5.85 18.24H70.5c-14.73-.28-29.47-.65-44.2-.79-2.76 0-4.59-.76-6.23-3-6.15-8.51-12.37-17-18.78-25.26-1.77-2.28-1.5-3.95-.28-6.23 11.36-21.33 22.45-42.81 34-64a53.76 53.76 0 006.87-22.68c.61-9.29 1.69-18.57 2.79-27.83q2.78-23.34 6-46.65a7.09 7.09 0 012.69-4.45q55.1-36.76 110.39-73.26a9.14 9.14 0 015.25-1.3c41.33 2.72 82.66 5.56 124 8.27a10.74 10.74 0 005.68-1.42c8.72-5 17.27-10.3 26-15.28 1.77-1 4.06-1.25 6.15-1.53 1.56-.21 3.22.3 4.8.14C349.19-1.12 361 3.35 372.8 9.87c18.72 10.36 38 19.66 57.11 29.4 5.58 2.85 6.54 2.61 10.07-2.27 4.1-5.68 8-11.46 12.38-16.95a7.93 7.93 0 015.22-2.76c8.38-.29 16.79-.13 25.41-.13-2.18 8.11-3.6 15.51-6.19 22.46-2.49 6.71.68 11 4.54 15.43a26.08 26.08 0 012.21 2.63q22.07 33.32 44.07 66.76c.32.49.54 1 .91 1.75-4.59 6.81-9.14 13.74-13.95 20.49-.69 1-2.74 1.54-4.05 1.37q-60.52-7.52-121-15.37c-4.87-.64-7.15.44-8.91 5.18-3.44 9.27-7.52 18.32-11.68 27.29-1.35 2.91-.78 4.59 1.21 6.79q16.55 18.33 32.85 36.94a8 8 0 012.14 4.87c-.78 22-1.77 44-2.72 66a6.54 6.54 0 01-.49 1.43h-24.6c-4.09-14.12-8.32-28.19-12.17-42.36-1.08-4-2.93-6.5-6.74-8.28-8-3.75-15.79-8-24.36-12.43 1.62 10.46 3 20.21 4.74 29.91.19 1.14 1.71 2.22 2.85 3 6.86 4.69 13.7 9.42 20.73 13.84 2.83 1.77 4 3.71 3.66 7.07a91.06 91.06 0 00-.08 10h-79.18c.66-37.09 1.33-74.29 2-112.31l-88.16 25.67c1.2 8.86 2.34 17.46 3.53 26.06 1 7.35 2.26 14.69 3.07 22.06a7.4 7.4 0 003.85 6.25c9.1 5.52 17.79 11.76 27.15 16.76 6.43 3.44 8.12 7.92 6.41 15.05h-4.41c-24.51 0-49-.07-73.54.08A7.17 7.17 0 01160 278q-24.15-34.61-48.55-69c-.96-1.35-1.92-2.6-2.89-3.93zm279.37 63.36l1.35-.39c.13-1.1.31-2.2.36-3.3.64-14.56 1.1-29.13 2-43.67a11.09 11.09 0 00-3.28-8.9c-11.45-12.64-22.68-25.48-34.13-38.13-1.84-2-2-3.54-.94-6q10.2-23.18 20-46.52c1.21-2.89 2.58-3.89 5.79-3.46q38.77 5.14 77.6 9.93a4.5 4.5 0 003.6-1.31q12.93-18.85 25.51-37.95a4.2 4.2 0 00-.22-3.74c-2-3.12-4.57-5.93-6.67-9-4.1-6-8.14-12.08-12-18.26-1.47-2.35-3.08-3.4-5.95-3.36-8.89.1-17.8 0-26.68-.31a21.89 21.89 0 01-8.69-2.13C405.5 41.81 385.32 32 365.7 21.15c-10.34-5.71-20.76-8.72-32.41-7.61a12.46 12.46 0 00-4.93 1.29c-7.08 4-14.13 8.16-21 12.55a6.66 6.66 0 00-2.66 4.7c-1 50-1.88 100-2.93 149.93-.07 3.5 1.1 5.11 4.05 6.61 21.79 11.11 43.49 22.42 65.26 33.57a8.34 8.34 0 014.7 5.73c3.26 11.92 6.78 23.78 10.25 35.64.5 1.67 1.26 3.25 1.9 4.87zm-173.69-.16l.24-.9c-5.28-3.33-10.69-6.49-15.78-10.11a8.91 8.91 0 01-3.45-5.34c-4.33-29.67-8.44-59.38-12.61-89.08q-7.75-55.36-15.52-110.73c-1.14-8.09-2.35-16.18-3.59-24.7-1.74 1.12-2.84 1.8-3.92 2.52-27.69 18.36-55.1 37.15-83.21 54.85-9.6 6-15.9 12.42-14.63 24.23a.9.9 0 01-.06.43c-1.22 3.56.19 6.32 2.25 9.21 13.77 19.35 27.4 38.8 41.04 58.21q31 43.95 62 87.85c1.05 1.48 2.91 3.38 4.43 3.4 14.29.26 28.57.16 42.81.16zM176.52 23.79c7.46 53.15 14.8 105.54 22.16 158.06 1.17-.23 1.75-.3 2.3-.46 27.94-8.15 55.88-16.35 83.85-24.38 3.21-.92 4.26-2.3 4.31-5.69.5-33.95 1.22-67.9 1.83-101.85.11-5.79 0-11.59 0-17.82zM55.15 271.5l-16.4-15.06 61-64.12L59 134.57c-1.16 11.16-2.36 20.82-3.12 30.51-.71 8.93-1.94 17.6-7.21 25.2a81.29 81.29 0 00-5.08 8c-9.1 17.07-18.08 34.21-27.19 51.27-1.09 2-1.26 3.54.28 5.48 3.61 4.56 6.91 9.37 10.52 13.94.89 1.13 2.44 2.41 3.72 2.45 7.69.2 15.39.08 24.23.08zm246-70.39v67.72h43c-5-3.41-9-6.54-13.4-9-3.52-2-4.57-4.75-5.1-8.4-1.83-12.67-3.85-25.32-5.9-38-.21-1.3-.8-3.06-1.77-3.61-5.12-2.82-10.45-5.44-16.82-8.71zm172.77-71c11.15 1.4 21.6 2.86 32.08 4 2.76.29 6.78-7.81 5.24-10.17-5.3-8.15-10.68-16.25-16.14-24.53zm-19.2-89.37H463c.77-3.38 1.5-6.57 2.38-10.37-7.38.04-7.62 6.63-10.66 10.37z"/></svg>